<?xml version="1.0" encoding="UTF-8" standalone="no"?>
<svg
   viewBox="0 0 300 300"
   version="1.1"
   id="svg134"
   sodipodi:docname="github.svg"
   inkscape:version="1.2.2 (b0a84865, 2022-12-01)"
   xmlns:inkscape="http://www.inkscape.org/namespaces/inkscape"
   xmlns:sodipodi="http://sodipodi.sourceforge.net/DTD/sodipodi-0.dtd"
   xmlns="http://www.w3.org/2000/svg"
   xmlns:svg="http://www.w3.org/2000/svg">
  <defs
     id="defs138" />
  <sodipodi:namedview
     id="namedview136"
     pagecolor="#ffffff"
     bordercolor="#000000"
     borderopacity="0.25"
     inkscape:showpageshadow="2"
     inkscape:pageopacity="0.0"
     inkscape:pagecheckerboard="0"
     inkscape:deskcolor="#d1d1d1"
     showgrid="false"
     inkscape:zoom="2.9540903"
     inkscape:cx="97.999712"
     inkscape:cy="177.21192"
     inkscape:window-width="2560"
     inkscape:window-height="1387"
     inkscape:window-x="0"
     inkscape:window-y="25"
     inkscape:window-maximized="1"
     inkscape:current-layer="svg134" />
  <path
     fill="#24292f"
     fill-rule="evenodd"
     d="M 150.12413,1.2600625e-6 C 67.109358,1.2600625e-6 1.1669939e-6,68.749714 1.1669939e-6,153.80248 1.1669939e-6,221.7897 42.99928,279.33946 102.65069,299.70813 c 7.45795,1.53124 10.18978,-3.30937 10.18978,-7.38123 0,-3.5656 -0.24584,-15.78743 -0.24584,-28.52175 -41.7609,9.16871 -50.457246,-18.3343 -50.457246,-18.3343 -6.711242,-17.82492 -16.65519,-22.40615 -16.65519,-22.40615 -13.66832,-9.42184 0.995624,-9.42184 0.995624,-9.42184 15.161755,1.01874 23.117528,15.78743 23.117528,15.78743 13.419412,23.4249 35.043504,16.80618 43.742924,12.7312 1.24147,-9.93121 5.22089,-16.80618 9.44614,-20.62491 -33.307315,-3.56561 -68.35082,-16.80618 -68.35082,-75.88406 0,-16.80618 5.961452,-30.55612 15.407588,-41.24983 -1.490362,-3.81873 -6.711242,-19.609293 1.493437,-40.743579 0,0 12.675768,-4.074984 41.256935,15.787434 a 144.33475,146.78064 0 0 1 37.53258,-5.093729 c 12.67577,0 25.59736,1.784367 37.52948,5.093729 28.58425,-19.862418 41.26001,-15.787434 41.26001,-15.787434 8.20468,21.134286 2.98074,36.924849 1.49037,40.743579 9.69504,10.69371 15.41066,24.44365 15.41066,41.24983 0,59.07788 -35.04351,72.0622 -68.59972,75.88406 5.46979,4.83747 10.18978,14.00306 10.18978,28.51863 0,20.62491 -0.24583,37.17796 -0.24583,42.26857 0,4.07498 2.73488,8.91559 10.18979,7.38746 C 257.00006,279.33634 299.99933,221.7897 299.99933,153.80248 300.24517,68.749714 232.88997,1.2600625e-6 150.12413,1.2600625e-6 Z"
     clip-rule="evenodd"
     id="path132"
     style="stroke-width:3.09883"
     inkscape:label="path132" />
</svg>
