<?xml version="1.0" encoding="UTF-8" standalone="no"?>
<svg
   preserveAspectRatio="xMidYMid"
   viewBox="0 0 300 300"
   version="1.1"
   id="svg134"
   sodipodi:docname="linkedin.svg"
   width="300"
   height="300"
   inkscape:version="1.2.2 (b0a84865, 2022-12-01)"
   xmlns:inkscape="http://www.inkscape.org/namespaces/inkscape"
   xmlns:sodipodi="http://sodipodi.sourceforge.net/DTD/sodipodi-0.dtd"
   xmlns="http://www.w3.org/2000/svg"
   xmlns:svg="http://www.w3.org/2000/svg">
  <defs
     id="defs138" />
  <sodipodi:namedview
     id="namedview136"
     pagecolor="#ffffff"
     bordercolor="#000000"
     borderopacity="0.25"
     inkscape:showpageshadow="2"
     inkscape:pageopacity="0.0"
     inkscape:pagecheckerboard="0"
     inkscape:deskcolor="#d1d1d1"
     showgrid="false"
     inkscape:zoom="0.921875"
     inkscape:cx="128.54237"
     inkscape:cy="128.54237"
     inkscape:window-width="2560"
     inkscape:window-height="1387"
     inkscape:window-x="0"
     inkscape:window-y="25"
     inkscape:window-maximized="1"
     inkscape:current-layer="svg134" />
  <path
     d="m 255.61306,255.61759 h -44.45039 v -69.61287 c 0,-16.5996 -0.29648,-37.96873 -23.11875,-37.96873 -23.15156,0 -26.69414,18.08671 -26.69414,36.76053 V 255.6129 H 116.90056 V 112.46139 h 42.67149 v 19.56328 h 0.59765 a 46.766016,46.765998 0 0 1 42.10313,-23.1246 c 45.05273,0 53.35898,29.63436 53.35898,68.18669 z M 66.744313,92.894604 c -14.246485,0.0023 -25.797657,-11.545308 -25.8,-25.791787 -0.0023,-14.246479 11.54414,-25.797646 25.790625,-25.79999 14.246484,-0.0035 25.797656,11.544136 25.799999,25.790615 A 25.796484,25.796474 0 0 1 66.744313,92.894604 M 88.970094,255.61876 H 44.472828 V 112.46139 h 44.496094 v 143.1562 z M 277.77322,0.02120235 H 22.136891 C 10.054859,-0.1147351 0.14665625,9.5637768 -0.001,21.645803 V 278.34844 c 0.14296875,12.08789 10.05,21.77577 22.136719,21.64921 H 277.77322 c 12.1125,0.15 22.0582,-9.53789 22.22578,-21.64921 V 21.625882 C 299.82673,9.5204174 289.87986,-0.15692258 277.77322,0.00128048"
     id="path132"
     style="stroke-width:1.17187" />
</svg>
